<?xml version="1.0" encoding="utf-8"?>
<!-- Generator: Adobe Illustrator 25.4.1, SVG Export Plug-In . SVG Version: 6.00 Build 0)  -->
<svg version="1.1"
	 id="svg8" xmlns:cc="http://creativecommons.org/ns#" xmlns:dc="http://purl.org/dc/elements/1.1/" xmlns:inkscape="http://www.inkscape.org/namespaces/inkscape" xmlns:rdf="http://www.w3.org/1999/02/22-rdf-syntax-ns#" xmlns:sodipodi="http://sodipodi.sourceforge.net/DTD/sodipodi-0.dtd" xmlns:svg="http://www.w3.org/2000/svg"
	 xmlns="http://www.w3.org/2000/svg" xmlns:xlink="http://www.w3.org/1999/xlink" x="0px" y="0px" viewBox="0 0 576 432"
	 style="enable-background:new 0 0 576 432;" xml:space="preserve">
<style type="text/css">
	.st0{fill:none;stroke:#FF0000;stroke-width:0.36;stroke-miterlimit:11.3386;}
	.st1{font-family:'ArialMT';}
	.st2{font-size:7.2741px;}
	.st3{enable-background:new    ;}
	.st4{fill:none;stroke:#000000;stroke-width:0.288;stroke-miterlimit:11.3386;stroke-dasharray:6.912,6.912;}
	.st5{fill:none;stroke:#000000;stroke-width:0.2835;stroke-miterlimit:11.3386;stroke-dasharray:3.4016,3.4016;}
	.st6{fill:none;stroke:#000000;stroke-width:0.576;stroke-miterlimit:11.3386;}
	.st7{fill:none;stroke:#000000;stroke-width:0.3613;stroke-miterlimit:11.3386;}
</style>
<sodipodi:namedview  bordercolor="#666666" borderopacity="1.0" id="base" inkscape:current-layer="layer1" inkscape:cx="364.39847" inkscape:cy="300.49634" inkscape:document-units="in" inkscape:pageopacity="0.0" inkscape:pageshadow="2" inkscape:snap-global="false" inkscape:window-height="1175" inkscape:window-maximized="1" inkscape:window-width="1920" inkscape:window-x="0" inkscape:window-y="0" inkscape:zoom="1.979899" pagecolor="#ffffff" showgrid="false" units="in">
	</sodipodi:namedview>
<g>
	<text transform="matrix(6.123234e-17 -1 1 6.123234e-17 406.4247 217.4678)" class="st0 st1 st2">mis-connect</text>
	<text transform="matrix(1 0 0 1 383.2307 242.1287)" class="st0 st1 st2">electro</text>
	<text transform="matrix(1 0 0 1 383.1897 251.4022)" class="st3"><tspan x="0" y="0" class="st0 st1 st2">mini(c)</tspan><tspan x="0" y="8.7" class="st0 st1 st2">rev 1.0</tspan></text>
	<path id="rect836" class="st4" d="M235.8,276.2h108c11.8,0,21.4,9.6,21.4,21.4l0,0c0,11.8-9.6,21.4-21.4,21.4h-108
		c-11.8,0-21.4-9.6-21.4-21.4l0,0C214.4,285.7,223.9,276.2,235.8,276.2z"/>
	<path id="rect968" inkscape:connector-curvature="0" class="st5" d="M203.8,325.1H373v-59.4h-12.6v-36H373V207l-31-31H234.7l-31,31
		L203.8,325.1z"/>
	<circle id="path1000" class="st6" cx="229" cy="247.7" r="6.4"/>
	<circle id="path1000-8" class="st6" cx="347.8" cy="247.7" r="6.4"/>
	<g id="g1096" transform="rotate(-90,91.955179,322.43127)">
		<circle id="path1063" class="st5" cx="168.2" cy="478.9" r="6.2"/>
		<circle id="path1063-5" class="st5" cx="219.5" cy="478.9" r="6.2"/>
		<circle id="path1063-0" class="st5" cx="168.2" cy="558.5" r="6.2"/>
		<circle id="path1063-9" class="st5" cx="219.5" cy="558.5" r="6.2"/>
	</g>
	<rect id="rect967" x="180.4" y="157.7" class="st4" width="216" height="72"/>
	<path id="rect979" class="st4" d="M211,229.7h142.2c4,0,7.2,3.2,7.2,7.2v21.6c0,4-3.2,7.2-7.2,7.2H211c-4,0-7.2-3.2-7.2-7.2v-21.6
		C203.8,232.9,207,229.7,211,229.7z"/>
	<path id="path842" inkscape:connector-curvature="0" class="st6" d="M429.1,237.8c-5.1,0-9.2,4.1-9.2,9.2c0,0,0,0,0,0
		c0,3.2,1.6,6.1,4.3,7.8h9.9c2.7-1.7,4.3-4.6,4.3-7.8C438.3,241.9,434.2,237.8,429.1,237.8C429.1,237.8,429.1,237.8,429.1,237.8z"/>
	
		<ellipse id="path842-9" transform="matrix(0.9239 -0.3827 0.3827 0.9239 -61.871 183.0238)" class="st5" cx="429.1" cy="247" rx="14.5" ry="14.5"/>
	<path id="path838-8-4" inkscape:connector-curvature="0" class="st6" d="M429.6,127.4c-3.5,0-6.8,1.5-9,4.2v15.3
		c2.2,2.6,5.5,4.2,9,4.2c3.5,0,6.8-1.5,9-4.2v-15.3C436.3,128.9,433.1,127.4,429.6,127.4z"/>
	<circle id="path2105-7" class="st5" cx="429.6" cy="139.2" r="18.2"/>
	<path id="path838-8-1-3" inkscape:connector-curvature="0" class="st6" d="M429.6,185.7c-3.5,0-6.8,1.5-9,4.2v15.3
		c2.2,2.6,5.5,4.2,9,4.2c3.5,0,6.8-1.5,9-4.2v-15.3C436.3,187.2,433.1,185.7,429.6,185.7z"/>
	<circle id="path2105-5-1" class="st5" cx="429.6" cy="197.5" r="18.2"/>
	<path class="st7" d="M455,121c0-6.4-5.2-11.6-11.6-11.6h-15.4c-6.9,0-13.5,2.4-18.8,6.9L357.7,160c-5.8,4.9-13.1,7.6-20.7,7.6
		H206.4c-6.2,0-11.2,4.2-11.2,9.4v88.2c0,5.2,5,9.4,11.2,9.4h237.3c6.2,0,11.2-4.2,11.2-9.4v-73.9c0-0.2,0-0.3,0-0.5V121z"/>
</g>
</svg>
